<svg enable-background="new 0 0 530.17 326.667" height="248.039185" viewBox="0 0 530.17 326.667" width="403.162105" xmlns="http://www.w3.org/2000/svg" xmlns:xlink="http://www.w3.org/1999/xlink"><linearGradient id="a"><stop offset=".5" stop-color="#e30613"/><stop offset="1" stop-color="#ec6338"/></linearGradient><linearGradient id="b" gradientUnits="userSpaceOnUse" x1="270.0127" x2="270.0127" xlink:href="#a" y1="179.1366" y2="103.2977"/><linearGradient id="c" gradientUnits="userSpaceOnUse" x1="461.1332" x2="461.1332" xlink:href="#a" y1="179.1366" y2="103.2977"/><linearGradient id="d"><stop offset=".5" stop-color="#e30613"/><stop offset="1" stop-color="#e94f35"/></linearGradient><linearGradient id="e" gradientUnits="userSpaceOnUse" x1="309.3735" x2="309.3735" xlink:href="#d" y1="180.7125" y2="104.8821"/><linearGradient id="f" gradientUnits="userSpaceOnUse" x1="364.3599" x2="364.3599" xlink:href="#d" y1="180.7135" y2="104.8787"/><linearGradient id="g" gradientUnits="userSpaceOnUse" x1="398.8838" x2="398.8838" y1="112.4606" y2="193.1101"><stop offset=".1292" stop-color="#b70e0c"/><stop offset=".2247" stop-color="#c90c0f"/><stop offset=".4607" stop-color="#e63323"/></linearGradient><linearGradient id="h" gradientUnits="userSpaceOnUse" x1="436.2054" x2="312.9345" y1="147.3053" y2="147.3053"><stop offset="0" stop-color="#c90c0f"/><stop offset=".0629" stop-color="#d20a11"/><stop offset=".167" stop-color="#dc0812"/><stop offset=".2931" stop-color="#e20613"/><stop offset=".5" stop-color="#e30613"/><stop offset=".8315" stop-color="#ec6338"/></linearGradient><path d="m315.279 193.119c6.507 0 11.811-5.299 11.811-11.809 0 0 0-52.7 0-57.228l-11.995-11.47z" fill="#c90c0f"/><path d="m275.916 192.835c-6.508 0-11.807-5.297-11.807-11.813v-68.004c0-6.517 5.299-11.81 11.807-11.81z" fill="url(#b)"/><path d="m275.916 101.209c6.513 0 11.812 5.293 11.812 11.81v68.004c0 6.516-5.299 11.813-11.812 11.813z" fill="#c90c0f"/><path d="m467.039 192.835c-6.517 0-11.811-5.297-11.811-11.813v-68.004c0-6.517 5.295-11.81 11.811-11.81z" fill="url(#c)"/><path d="m467.039 101.209c6.51 0 11.808 5.293 11.808 11.81v68.004c0 6.516-5.298 11.813-11.808 11.813z" fill="#c90c0f"/><path d="m315.095 112.612-11.627-11.12v79.817c0 6.511 5.295 11.809 11.811 11.809z" fill="url(#e)"/><path d="m358.456 124.082v57.228c0 6.511 5.289 11.809 11.808 11.809l-.037-80.658z" fill="url(#f)"/><path d="m314.933 112.461 12.157 11.621h31.366l11.771-11.621z" fill="#b70e0c"/><path d="m370.227 112.461.037 80.658c6.515 0 11.811-5.299 11.811-11.809 0 0 0-52.7 0-57.228z" fill="#c90c0f"/><path d="m401.186 112.461h-30.96l11.849 11.621h20.983c7.299 0 12.809 5.2 12.809 12.102v45.126c0 6.469 5.229 11.734 11.674 11.801 0-10.346 0-47.991 0-59.264 0-13.11-9.492-21.386-26.355-21.386z" fill="url(#g)"/><path d="m404.086 101.492h-33.859-66.759l11.465 10.969h55.294 30.96c16.862 0 26.354 8.276 26.354 21.386v59.264c.049 0 .092.009.134.009 6.51 0 11.809-5.299 11.809-11.809v-47.311c-.001-21.029-15.879-32.508-35.398-32.508z" fill="url(#h)"/><path d="m163.369 69.33-23.4-13.506c-.063-.041-.44-.221-.563-.277-.138-.064-.705-.269-.845-.315-.12-.032-.647-.154-.795-.178-.149-.027-.999-.109-1.075-.109-.072 0-.923.082-1.075.109-.145.023-.679.146-.796.18-.145.045-.701.248-.841.313-.122.057-.502.239-.565.277l-23.397 13.506c-3.134 1.813-4.208 5.818-2.401 8.952 1.811 3.133 5.818 4.206 8.95 2.396l13.575-7.836v15.676c0 3.617 2.935 6.549 6.551 6.549 3.621 0 6.553-2.932 6.553-6.549v-15.676l13.574 7.836c3.138 1.81 7.139.736 8.949-2.396 1.808-3.134.736-7.139-2.399-8.952z" fill="#878787"/><path d="m56.197 162.537.003 27.02c-.003.074.03.485.045.623.012.145.116.745.148.893.03.113.188.635.241.778.05.138.407.919.442.983.036.061.536.756.63.875.094.113.466.516.557.599.109.102.565.479.691.567.11.083.462.317.523.358l23.401 13.511c3.13 1.807 7.139.732 8.949-2.405 1.809-3.128.734-7.137-2.402-8.943l-13.57-7.839 13.57-7.836c3.137-1.81 4.212-5.819 2.402-8.951-1.811-3.134-5.819-4.208-8.949-2.397l-13.578 7.835v-15.671c0-3.62-2.932-6.556-6.553-6.556-3.615 0-6.547 2.936-6.55 6.556z" fill="#706f6f"/><ellipse cx="45.731" cy="199.384" fill="#706f6f" rx="6.55" ry="6.552" transform="matrix(.866 -.5 .5 .866 -93.5621 49.5751)"/><path d="m217.189 162.537-.003 27.02c.003.074-.032.485-.045.623-.013.145-.114.745-.15.893-.027.113-.186.635-.238.778-.056.138-.41.919-.445.983-.039.061-.532.756-.628.875-.096.113-.466.516-.559.599-.107.102-.566.479-.693.567-.108.083-.455.317-.516.358l-23.402 13.511c-3.132 1.807-7.139.732-8.949-2.405-1.808-3.128-.735-7.137 2.398-8.943l13.573-7.839-13.573-7.836c-3.133-1.81-4.209-5.819-2.398-8.951 1.808-3.134 5.814-4.208 8.946-2.397l13.575 7.835.002-15.671c-.002-3.62 2.934-6.556 6.552-6.556 3.615 0 6.55 2.936 6.553 6.556z" fill="#4a4a49"/><ellipse cx="227.653" cy="199.384" fill="#4a4a49" rx="6.552" ry="6.551" transform="matrix(.5 -.866 .866 .5 -58.8496 296.8325)"/><path d="m89.426 112.025-13.574-7.839 13.573-7.838c3.138-1.81 4.212-5.815 2.4-8.951-1.808-3.131-5.816-4.206-8.948-2.397l-23.4 13.514c-.066.034-.409.267-.52.348-.126.089-.588.474-.694.575-.093.087-.459.48-.557.599-.079.103-.444.605-.572.792l34.733 20.05c1.738-3.118.666-7.066-2.441-8.853z" fill="#e6332a"/><path d="m57.134 100.827c-.021.03-.054.077-.058.085-.035.062-.393.842-.442.983-.052.139-.214.658-.244.781-.034.143-.133.732-.145.883-.017.138-.048.554-.048.627v27.015c0 3.615 2.935 6.549 6.551 6.549 3.617 0 6.553-2.934 6.553-6.549v-15.673l13.578 7.838c3.13 1.807 7.139.733 8.949-2.398.016-.028.022-.061.039-.091z" fill="#c90c0f"/><path d="m183.958 112.025 13.572-7.839-13.572-7.838c-3.134-1.81-4.207-5.815-2.398-8.951 1.814-3.131 5.817-4.206 8.95-2.397l23.402 13.514c.063.034.406.267.515.348.125.089.588.474.699.575.09.087.457.48.553.599.081.103.446.605.573.792l-34.733 20.05c-1.738-3.118-.667-7.066 2.439-8.853z" fill="#e6332a"/><path d="m216.252 100.827c.02.03.052.077.056.085.037.062.393.842.444.983.053.139.213.658.241.781.037.143.135.732.147.883.017.138.048.554.048.627v27.015c0 3.615-2.935 6.549-6.554 6.549-3.615 0-6.552-2.934-6.552-6.549v-15.673l-13.574 7.838c-3.132 1.807-7.139.733-8.949-2.398-.017-.028-.028-.061-.041-.091z" fill="#b70e0c"/><path d="m130.139 205.227v15.673l-13.573-7.837c-3.134-1.809-7.14-.736-8.95 2.4-1.809 3.128-.735 7.137 2.4 8.945l23.399 13.512c.063.039.442.216.565.275.135.061.702.269.846.313.116.036.643.154.791.177.131.026.751.083.977.101l-.004-40.1c-3.57.053-6.451 2.951-6.451 6.541z" fill="#c90c0f"/><path d="m136.593 238.787c.035.009.091.012.099.012.071 0 .924-.083 1.072-.112.146-.022.68-.141.801-.18.14-.042.699-.249.836-.311.128-.06.506-.24.568-.275l23.397-13.512c3.136-1.809 4.209-5.817 2.401-8.945-1.811-3.134-5.814-4.209-8.949-2.4l-13.574 7.837-.001-15.673c0-3.621-2.931-6.555-6.552-6.555-.038 0-.064.015-.103.015z" fill="#b70e0c"/><circle cx="136.692" cy="41.842" fill="#878787" r="6.551"/><path d="m103.135 166.275v-38.781l33.567 19.378v38.777z" fill="#e30613"/><path d="m170.268 166.275v-38.781l-33.566 19.378v38.777z" fill="#b70e0c"/><path d="m136.702 146.872-33.567-19.378 33.556-19.375 33.577 19.375z" fill="#e94f35"/><path d="m310.683 281.454h-3.786l-1.706-4.639h-7.465l-1.76 4.639h-3.519l7.518-18.663h3.413zm-6.346-6.985-2.506-6.932c-.053-.16-.107-.267-.107-.373-.053-.107-.107-.32-.16-.587-.107.32-.16.48-.213.587s-.053.213-.107.32l-2.666 6.985z" fill="#94969a"/><path d="m325.453 281.401c-.8.213-1.6.373-2.346.427-.747.053-1.386.107-1.866.107-1.76 0-3.306-.267-4.639-.747-1.333-.533-2.506-1.226-3.413-2.08-.906-.906-1.6-1.92-2.08-3.093s-.693-2.453-.693-3.786.267-2.613.693-3.786c.427-1.173 1.173-2.24 2.08-3.146.906-.906 2.026-1.653 3.359-2.133 1.333-.533 2.826-.8 4.586-.8 1.386 0 2.506.107 3.413.373.906.267 1.493.427 1.813.533v3.199c-.213-.107-.427-.267-.746-.427-.32-.16-.64-.32-1.066-.48-.427-.16-.853-.32-1.386-.427s-1.066-.16-1.706-.16c-1.12 0-2.133.16-2.986.533-.906.373-1.653.853-2.293 1.493s-1.12 1.386-1.493 2.24c-.373.853-.533 1.813-.533 2.826s.16 2.026.533 2.879c.373.906.853 1.653 1.546 2.346.693.64 1.493 1.173 2.453 1.546s2.08.587 3.359.587c.587 0 1.173-.053 1.76-.107.533-.107 1.066-.16 1.546-.267s.853-.213 1.226-.32c.32-.107.587-.213.747-.267z" fill="#94969a"/><path d="m335.104 281.454h-3.519v-18.663h3.519z" fill="#94969a"/><path d="m338.25 268.39h3.093v2.506l1.706-2.399c.533-.213 1.013-.32 1.493-.373s.853-.053 1.12-.053c.96 0 1.706.16 2.293.427s1.066.64 1.386 1.12.533 1.013.64 1.653.16 1.28.16 1.973v8.265h-3.093v-7.465c0-.48-.053-.96-.107-1.386-.053-.427-.213-.8-.373-1.12-.213-.32-.48-.587-.853-.746-.373-.213-.853-.267-1.44-.267-.48 0-.96.107-1.493.267s-1.013.427-1.44.746v9.971h-3.039z" fill="#94969a"/><path d="m365.124 281.454h-3.093v-2.186l-1.493 2.186c-.213.053-.48.16-.8.213s-.693.107-1.173.107c-1.12 0-2.026-.213-2.773-.533-.747-.373-1.386-.853-1.92-1.493-.48-.64-.853-1.333-1.066-2.133s-.373-1.6-.373-2.453c0-.96.16-1.813.427-2.666s.693-1.6 1.226-2.24 1.226-1.173 1.973-1.546c.8-.373 1.653-.587 2.666-.587.64 0 1.173.053 1.76.213.533.16 1.066.373 1.6.64v-6.185h3.093zm-3.092-10.238c-.533-.32-1.013-.533-1.44-.64s-.853-.16-1.12-.16-.587.053-.96.107c-.373.107-.8.267-1.226.64-.587.48-1.013 1.066-1.226 1.76-.213.693-.373 1.44-.373 2.186 0 .32 0 .587.053.853.053.267.107.587.213.853.213.747.587 1.333 1.173 1.813.587.48 1.333.746 2.346.746.48 0 .906-.053 1.333-.16s.853-.267 1.28-.48z" fill="#94969a"/><path d="m380.161 281.454h-3.093v-2.506l-1.653 2.4c-.533.213-1.066.32-1.493.373-.48.053-.8.053-1.066.053-.16 0-.373 0-.64-.053-.267 0-.533-.053-.8-.16-.32-.053-.587-.16-.906-.32-.32-.16-.64-.373-.906-.587-.32-.267-.587-.587-.747-.853-.16-.32-.32-.587-.373-.906-.107-.32-.16-.64-.16-.96s-.053-.587-.053-.906v-8.638h3.093v7.572c0 .48.053.906.107 1.333s.16.747.373 1.066c.213.32.48.533.8.746.373.16.8.267 1.44.267.533 0 1.066-.107 1.6-.267.533-.213 1.066-.427 1.493-.746v-9.971h3.093z" fill="#94969a"/><path d="m390.879 271.429c-.107-.107-.213-.213-.373-.32-.16-.16-.373-.267-.587-.373-.267-.16-.533-.267-.853-.32-.32-.107-.693-.16-1.066-.16-.427 0-.746.053-1.013.16s-.48.267-.64.427-.267.373-.32.533c-.053.213-.107.373-.107.533 0 .267.053.48.16.64s.213.32.373.427.32.213.533.32.373.16.587.267l1.333.533c.373.16.64.32.906.427.267.16.48.32.747.48.107.107.213.213.32.373s.267.32.373.533c.107.213.213.48.32.746.107.267.107.587.107.96 0 .533-.107 1.013-.32 1.546-.213.48-.533.906-.96 1.28s-.906.693-1.546.906-1.333.32-2.133.32c-.587 0-1.226-.053-1.866-.213s-1.333-.373-2.08-.693v-2.613c.48.32 1.013.587 1.653.853.64.267 1.226.373 1.813.373.373 0 .693-.053 1.013-.16.267-.107.48-.267.693-.427.16-.16.32-.373.373-.587.107-.213.107-.427.107-.587 0-.267-.053-.533-.16-.747-.107-.213-.267-.373-.427-.533-.213-.16-.373-.267-.587-.373s-.427-.213-.64-.267l-1.013-.373c-.213-.053-.48-.16-.8-.32s-.64-.373-.906-.64c-.32-.267-.533-.587-.747-.96-.213-.373-.32-.853-.32-1.44 0-.533.107-1.013.32-1.493s.48-.906.906-1.28c.427-.373.906-.693 1.493-.906s1.28-.32 2.08-.32c.906 0 1.6.107 2.186.32s1.013.373 1.28.533z" fill="#94969a"/><path d="m399.144 281.614c-.213.053-.427.053-.64.107-.267.053-.533.053-.906.053-.213 0-.427 0-.587-.053-.213 0-.427-.053-.693-.16-.267-.107-.48-.16-.693-.32s-.48-.32-.693-.533c-.427-.427-.64-.906-.693-1.386s-.107-1.013-.053-1.6l.053-7.145h-1.706l1.386-2.24h.32v-2.453l3.093-.96v3.466h2.933v2.24h-2.986l-.053 5.705c0 .746 0 1.226.053 1.6.053.32.107.64.267.853.107.16.32.32.587.48s.587.213 1.066.213c.32 0 .587-.053.906-.107.32-.053.587-.16.853-.267z" fill="#94969a"/><path d="m405.329 281.454h-3.146v-13.064h3.146v2.293l1.493-2.133c.267-.107.587-.213 1.013-.32.427-.107.853-.16 1.44-.16.32 0 .533 0 .693.053s.373.107.533.16v2.986c-.373-.16-.746-.32-1.12-.48s-.853-.267-1.386-.267c-.32 0-.693.053-1.173.16s-.96.32-1.493.64z" fill="#94969a"/><path d="m413.114 262.418c.427 0 .853.16 1.173.427s.48.693.48 1.173-.16.853-.48 1.173-.693.427-1.173.427c-.427 0-.8-.16-1.173-.427-.32-.32-.48-.693-.48-1.12 0-.48.16-.853.48-1.12.374-.373.747-.533 1.173-.533zm1.6 19.036h-3.093v-13.064h3.093z" fill="#94969a"/><path d="m427.511 278.041v1.546c0 .373 0 .693.053.906 0 .213.053.427.053.533 0 .107.053.267.107.373h-3.039c-.107-.267-.16-.587-.16-.906-.053-.32-.053-.693-.053-1.066l-1.493 2.026c-.267.053-.48.107-.693.16s-.533.053-.906.053c-.8 0-1.44-.107-1.973-.32s-.96-.427-1.333-.747c-.107-.107-.213-.213-.373-.373s-.32-.373-.427-.587c-.16-.267-.267-.533-.32-.853-.107-.32-.16-.693-.16-1.12 0-.96.267-1.813.747-2.399.533-.64 1.12-1.066 1.813-1.386.533-.213 1.066-.373 1.653-.48s1.173-.16 1.813-.16c.32 0 .587 0 .8.053.213 0 .533.053.853.107 0-.48-.053-.96-.107-1.333-.053-.373-.213-.747-.373-1.013-.213-.267-.48-.48-.853-.64s-.853-.213-1.386-.213c-.747 0-1.44.107-2.08.32s-1.226.427-1.813.64l1.6-2.773c.373-.107.853-.16 1.386-.267s1.173-.16 1.813-.16c.213 0 .48 0 .8.053.32 0 .64.053.96.16s.693.213 1.013.373.64.373.906.693c.267.267.48.533.64.853s.267.587.32.906c.053.32.107.587.16.906.053.32.053.587.053.853v5.282zm-3.039-2.506c-.16 0-.267-.053-.427-.053s-.267 0-.427 0c-.64 0-1.066.053-1.386.053-.32.053-.533.107-.693.16-.587.16-.96.427-1.226.8-.267.373-.373.746-.373 1.173 0 .213.053.48.107.693.053.213.213.427.373.587s.427.32.693.427c.267.107.64.16 1.013.16.48 0 .906-.053 1.333-.213s.747-.267 1.013-.373z" fill="#94969a"/><path d="m433.643 281.454h-3.093v-18.663h3.093z" fill="#94969a"/><path d="m444.414 271.429c-.107-.107-.213-.213-.373-.32-.16-.16-.373-.267-.587-.373-.267-.16-.533-.267-.853-.32s-.693-.16-1.066-.16c-.427 0-.747.053-1.013.16s-.48.267-.64.427-.267.373-.32.533c-.053.213-.107.373-.107.533 0 .267.053.48.16.64s.213.32.373.427.32.213.533.32.373.16.587.267l1.333.533c.373.16.64.32.906.427.267.16.48.32.746.48.107.107.213.213.32.373s.267.32.373.533.213.48.32.746c.107.267.107.587.107.96 0 .533-.107 1.013-.32 1.546-.213.48-.533.906-.96 1.28s-.906.693-1.546.906-1.333.32-2.133.32c-.587 0-1.226-.053-1.866-.213s-1.333-.373-2.08-.693v-2.613c.48.32 1.013.587 1.653.853.64.267 1.226.373 1.813.373.373 0 .693-.053 1.013-.16.267-.107.48-.267.693-.427.16-.16.32-.373.373-.587.053-.213.107-.427.107-.587 0-.267-.053-.533-.16-.747-.107-.213-.267-.373-.427-.533-.213-.16-.373-.267-.587-.373-.213-.107-.427-.213-.64-.267l-1.013-.373c-.213-.053-.48-.16-.8-.32s-.64-.373-.906-.64c-.32-.267-.533-.587-.747-.96-.213-.373-.32-.853-.32-1.44 0-.533.107-1.013.32-1.493s.48-.906.906-1.28.906-.693 1.493-.906 1.28-.32 2.08-.32c.906 0 1.6.107 2.186.32s1.013.373 1.28.533z" fill="#94969a"/><path d="m301.884 262.791h-3.199l1.76 3.306 2.453-1.333z" fill="#94969a"/><path d="m260.24 250.26h-5.492l16.636 31.247h.054l2.719-5.119z" fill="#046aae"/><path d="m269.518 250.26h-.053l-2.72 5.119 13.917 26.128h5.492z" fill="#046aae"/><path d="m280.502 250.26-3.519 6.666 2.773 5.172 6.292-11.838z" fill="#046aae"/><path d="m254.588 281.507h5.492l3.572-6.612-2.772-5.172z" fill="#046aae"/><g fill="#94969a"><path d="m294.526 286.786h1.386l2.08 5.599h-1.386l-.427-1.28h-1.973l-.427 1.28h-1.333zm1.333 3.306-.693-2.133-.693 2.133z"/><path d="m298.312 288.439h1.173l.053.427c.107-.16.32-.267.533-.373.213-.107.427-.16.64-.16.48 0 .8.16 1.066.427.267.267.427.64.427 1.173v2.453h-1.226v-2.24c0-.213-.053-.373-.16-.533-.107-.107-.267-.213-.48-.213-.16 0-.267.053-.373.053-.107.053-.213.107-.267.213-.053.107-.107.16-.16.267s-.053.213-.053.32v2.133h-1.173z"/><path d="m305.937 286.786h1.386l2.026 5.599h-1.386l-.427-1.28h-1.973l-.373 1.28h-1.333zm1.333 3.306-.693-2.133-.693 2.133z"/><path d="m309.616 292.971c.053.053.16.107.213.16s.16.053.267.053.213-.053.32-.107c.107-.107.16-.213.267-.427l.107-.32-1.813-3.893h1.386l.96 2.453.906-2.453h1.28l-1.6 3.893c-.107.213-.16.427-.267.64s-.213.427-.32.587-.267.32-.48.427c-.16.107-.427.16-.693.16-.213 0-.427-.053-.587-.107-.16-.053-.32-.16-.48-.267z"/><path d="m316.015 292.012c-.16.16-.32.267-.533.373-.213.107-.427.107-.693.107-.16 0-.267 0-.427-.053s-.32-.107-.427-.213c-.16-.107-.267-.213-.32-.373-.107-.16-.16-.373-.16-.587s.053-.427.16-.587.213-.32.373-.427.373-.213.587-.267.48-.107.693-.107h.427c.16 0 .213 0 .267.053v-.107c0-.107 0-.213-.053-.267-.053-.053-.107-.107-.16-.16s-.16-.107-.267-.107-.213-.053-.267-.053c-.267 0-.48.053-.693.107-.16.053-.32.16-.427.213l-.48-.747c.107-.053.16-.107.267-.213.107-.107.213-.107.373-.16s.32-.107.48-.107c.16-.053.373-.053.64-.053.587 0 1.013.16 1.333.48.267.32.427.747.427 1.28v2.346h-1.12zm0-1.387c-.053 0-.107 0-.16 0-.107 0-.16 0-.267 0-.32 0-.587.053-.693.16-.107.107-.213.213-.213.427 0 .32.213.48.587.48.107 0 .213 0 .267-.053.107-.053.16-.053.267-.16.053-.053.107-.107.16-.213.053-.107.053-.16.053-.32-.001-.001-.001-.321-.001-.321z"/><path d="m317.881 286.786h1.226v5.599h-1.226z"/><path d="m322.094 292.012c-.16.16-.32.267-.533.373-.213.107-.427.107-.693.107-.16 0-.267 0-.427-.053s-.32-.107-.427-.213c-.16-.107-.267-.213-.32-.373-.107-.16-.16-.373-.16-.587s.053-.427.16-.587.213-.32.373-.427.373-.213.587-.267c.213-.053.48-.107.693-.107h.427s.213 0 .267.053v-.107c0-.107 0-.213-.053-.267s-.107-.107-.16-.16-.16-.107-.267-.107-.213-.053-.267-.053c-.267 0-.48.053-.693.107s-.32.16-.427.213l-.48-.747c.107-.053.16-.107.267-.213.107-.053.213-.107.373-.16s.32-.107.48-.107c.16-.053.373-.053.64-.053.587 0 1.013.16 1.333.48s.427.747.427 1.28v2.346h-1.12zm0-1.387c-.053 0-.107 0-.16 0-.107 0-.16 0-.267 0-.32 0-.587.053-.693.16-.107.107-.213.213-.213.427 0 .32.213.48.587.48.107 0 .213 0 .267-.053.107-.053.16-.053.267-.16.053-.053.107-.107.16-.213.053-.107.053-.16.053-.32-.001-.001-.001-.321-.001-.321z"/><path d="m330.465 291.318c-.107.16-.267.32-.427.48s-.373.267-.533.373c-.213.107-.427.213-.64.267-.267.053-.48.107-.747.107-.427 0-.8-.053-1.173-.213s-.64-.373-.906-.587c-.267-.267-.427-.587-.587-.906-.16-.32-.213-.746-.213-1.173s.053-.8.213-1.173.32-.693.587-.96.533-.48.906-.64.746-.213 1.173-.213c.533 0 .96.107 1.333.267.373.213.693.48.96.8l-.853.853c-.16-.213-.373-.427-.587-.587-.213-.16-.48-.213-.8-.213-.267 0-.48.053-.693.16s-.373.213-.533.373-.267.373-.32.587c-.053.213-.107.427-.107.693 0 .267.053.48.107.693.053.213.16.373.32.533s.32.267.48.373c.16.107.427.16.64.16s.373 0 .533-.053.267-.107.373-.16c.107-.053.213-.16.32-.267s.16-.213.267-.267z"/><path d="m330.678 290.412c0-.267.053-.587.16-.8.107-.267.267-.48.427-.693.213-.213.427-.32.693-.427.267-.107.533-.16.853-.16s.587.053.853.16c.267.107.48.267.64.427.213.213.32.427.427.693.107.267.16.533.16.8 0 .32-.053.587-.16.8-.107.267-.267.48-.427.693-.213.213-.427.32-.64.48-.267.107-.533.16-.853.16s-.587-.053-.853-.16c-.267-.107-.48-.267-.693-.48s-.32-.427-.427-.693c-.106-.267-.16-.533-.16-.8zm2.133 1.066c.16 0 .267-.053.427-.107.107-.053.213-.16.32-.267s.16-.213.16-.32c.053-.107.053-.267.053-.373 0-.107 0-.267-.053-.373-.053-.107-.107-.267-.16-.32-.107-.107-.16-.16-.32-.213-.107-.053-.267-.107-.427-.107s-.267.053-.427.107c-.107.053-.213.16-.32.213-.107.107-.16.213-.16.32-.053.107-.053.267-.053.373 0 .107 0 .267.053.373.053.107.107.267.16.32.107.107.16.16.32.267.107.054.267.107.427.107z"/><path d="m335.424 288.439h1.173l.053.427c.107-.16.267-.267.48-.373.213-.107.427-.16.693-.16.16 0 .32 0 .427.053s.213.107.32.16.16.107.267.16.107.107.16.213c.16-.16.373-.32.587-.427s.48-.16.747-.16c.48 0 .906.16 1.173.427s.427.693.427 1.173v2.453h-1.226v-2.24c0-.213-.053-.427-.16-.533-.107-.107-.267-.213-.48-.213s-.427.107-.587.267-.213.373-.213.64v2.133h-1.173v-2.24c0-.213-.053-.427-.16-.533-.107-.107-.267-.213-.48-.213s-.427.107-.533.267c-.16.16-.213.373-.213.64v2.133h-1.226z"/><path d="m342.516 288.439h1.173c0 .053 0 .16.053.213v.213c.107-.16.32-.267.48-.373.213-.107.427-.16.64-.16.267 0 .533.053.747.16s.427.267.533.427c.16.213.267.427.32.64.053.267.107.48.107.747 0 .373-.053.693-.213.96-.107.267-.267.48-.48.64s-.427.32-.64.373c-.267.107-.48.107-.746.107-.213 0-.373 0-.48-.053s-.213-.053-.32-.107v1.706h-1.173v-5.493zm1.173 2.879c.16.107.373.16.693.16s.533-.107.693-.32.267-.48.267-.8c0-.107 0-.267-.053-.373-.053-.107-.107-.213-.16-.32s-.16-.16-.267-.213-.213-.107-.373-.107-.267.053-.373.053c-.107.053-.213.107-.267.213-.053.107-.107.16-.16.267s-.053.213-.053.32z"/><path d="m349.394 292.012c-.16.16-.32.267-.533.373-.213.107-.427.107-.693.107-.16 0-.267 0-.427-.053s-.32-.107-.427-.213c-.16-.107-.267-.213-.32-.373-.107-.16-.16-.373-.16-.587s.053-.427.16-.587.213-.32.373-.427.373-.213.587-.267.48-.107.693-.107h.427s.213 0 .267.053v-.107c0-.107 0-.213-.053-.267-.053-.053-.107-.107-.16-.16s-.16-.107-.267-.107-.213-.053-.267-.053c-.267 0-.48.053-.693.107-.16.053-.32.16-.427.213l-.48-.747c.107-.053.16-.107.267-.213.107-.053.213-.107.373-.16s.32-.107.48-.107c.16-.053.373-.053.64-.053.587 0 1.013.16 1.333.48.267.32.427.747.427 1.28v2.346h-1.12zm0-1.387c-.053 0-.107 0-.16 0-.107 0-.16 0-.267 0-.32 0-.587.053-.693.16-.16.107-.213.213-.213.427 0 .32.213.48.587.48.107 0 .213 0 .267-.053.107-.053.16-.053.267-.16.053-.053.107-.107.16-.213.053-.107.053-.16.053-.32v-.321z"/><path d="m351.261 288.439h1.173l.053.427c.107-.16.32-.267.533-.373.213-.107.427-.16.64-.16.48 0 .8.16 1.066.427.267.267.427.64.427 1.173v2.453h-1.226v-2.24c0-.213-.053-.373-.16-.533-.107-.107-.267-.213-.48-.213-.16 0-.267.053-.373.053-.107.053-.213.107-.267.213-.053.107-.107.16-.16.267s-.053.213-.053.32v2.133h-1.226v-3.946h.053z"/><path d="m355.846 292.971c.053.053.16.107.213.16s.16.053.267.053.213-.053.32-.107c.107-.107.16-.213.267-.427l.107-.32-1.813-3.893h1.386l.96 2.453.906-2.453h1.28l-1.6 3.893c-.107.213-.16.427-.267.64s-.213.427-.32.587-.267.32-.48.427c-.16.107-.427.16-.693.16-.213 0-.427-.053-.587-.107-.16-.053-.32-.16-.48-.267z"/><path d="m90.501 262.989h2.784l7.413 18.945h-3.039l-1.96-5.283h-7.783l-1.959 5.283h-2.869zm4.374 11.361-3.067-8.322-3.096 8.322z"/><path d="m107.912 271.595c0-.587 0-1.094 0-1.52 0-.427-.01-.876-.028-1.35h2.443l.085 1.988c.151-.228.35-.478.597-.753.245-.274.539-.525.88-.752.341-.228.743-.417 1.207-.568s.999-.228 1.605-.228c1.022 0 1.869.204 2.542.61.672.408 1.197 1 1.576 1.775.53-.625 1.179-1.179 1.946-1.661.767-.483 1.718-.725 2.854-.725 1.704 0 2.963.507 3.777 1.52.814 1.014 1.222 2.372 1.222 4.076v7.925h-2.557v-7.726c0-1.231-.241-2.135-.725-2.713-.482-.577-1.188-.866-2.115-.866-.531 0-1.019.109-1.463.326-.445.218-.834.507-1.165.866-.331.36-.587.781-.767 1.265-.181.482-.27.989-.27 1.52v7.328h-2.557v-7.726c0-1.231-.241-2.135-.725-2.713-.482-.577-1.179-.866-2.088-.866-.7 0-1.288.151-1.761.454-.474.304-.857.696-1.15 1.179-.294.483-.502 1.037-.625 1.662s-.185 1.25-.185 1.874v6.136h-2.557v-10.337z"/><path d="m144.1 280.003c-.152.171-.379.389-.682.653-.304.266-.696.521-1.179.767-.483.247-1.052.46-1.705.64s-1.396.27-2.229.27c-1.022 0-1.96-.17-2.812-.511-.853-.341-1.582-.824-2.188-1.449s-1.075-1.372-1.406-2.243-.497-1.837-.497-2.897c0-.966.161-1.87.483-2.713.321-.843.776-1.571 1.363-2.188.587-.614 1.282-1.103 2.088-1.462.805-.36 1.689-.54 2.655-.54 1.137 0 2.111.218 2.926.653s1.481 1.013 2.003 1.732c.521.72.903 1.544 1.15 2.472.245.928.369 1.894.369 2.896h-10.425c.019.588.146 1.127.384 1.619.236.493.554.919.951 1.278.397.36.853.645 1.363.853.512.208 1.052.313 1.619.313 1.117 0 2.035-.189 2.756-.568.719-.379 1.239-.748 1.562-1.107zm-2.301-5.823c-.076-1.023-.437-1.894-1.08-2.613s-1.553-1.08-2.727-1.08c-.606 0-1.15.104-1.633.313s-.895.483-1.235.824-.606.734-.796 1.179c-.189.445-.294.904-.313 1.378h7.784z"/><path d="m147.28 271.595c0-.587 0-1.094 0-1.52 0-.427-.01-.876-.028-1.35h2.443l.085 1.988c.151-.228.35-.478.597-.753.245-.274.539-.525.88-.752.341-.228.743-.417 1.207-.568s.999-.228 1.605-.228c1.022 0 1.869.204 2.542.61.672.408 1.197 1 1.576 1.775.53-.625 1.179-1.179 1.946-1.661.767-.483 1.718-.725 2.854-.725 1.704 0 2.963.507 3.777 1.52.814 1.014 1.222 2.372 1.222 4.076v7.925h-2.557v-7.726c0-1.231-.241-2.135-.725-2.713-.482-.577-1.188-.866-2.115-.866-.531 0-1.019.109-1.463.326-.445.218-.834.507-1.165.866-.331.36-.587.781-.767 1.265-.181.482-.27.989-.27 1.52v7.328h-2.557v-7.726c0-1.231-.241-2.135-.725-2.713-.482-.577-1.179-.866-2.088-.866-.7 0-1.288.151-1.761.454-.474.304-.857.696-1.15 1.179-.294.483-.502 1.037-.625 1.662s-.185 1.25-.185 1.874v6.136h-2.557v-10.337z"/><path d="m171.423 262.989h2.557v7.186c.132-.17.317-.359.554-.567s.525-.402.866-.583c.341-.18.734-.326 1.179-.439.445-.114.942-.171 1.491-.171.984 0 1.852.176 2.6.525.748.351 1.377.834 1.889 1.449s.895 1.34 1.15 2.173.384 1.723.384 2.67c0 1.041-.181 1.998-.54 2.868-.36.872-.866 1.619-1.52 2.244s-1.435 1.113-2.344 1.463c-.908.351-1.912.525-3.011.525-1.079 0-2.083-.085-3.011-.256-.928-.17-1.676-.369-2.244-.596zm2.528 16.758c.265.076.592.156.979.242.389.085.961.128 1.719.128.738 0 1.401-.118 1.988-.355.587-.236 1.094-.568 1.52-.994s.753-.938.98-1.534c.227-.597.341-1.244.341-1.945 0-.605-.071-1.188-.213-1.747-.143-.559-.37-1.051-.683-1.477-.312-.427-.705-.768-1.179-1.022-.473-.256-1.051-.384-1.732-.384-.625 0-1.169.109-1.633.326-.465.219-.853.502-1.165.853s-.544.758-.695 1.222c-.152.464-.228.942-.228 1.435v5.252z"/><path d="m199.032 280.003c-.152.171-.379.389-.682.653-.304.266-.696.521-1.179.767-.483.247-1.052.46-1.705.64s-1.396.27-2.229.27c-1.022 0-1.96-.17-2.812-.511-.853-.341-1.582-.824-2.188-1.449s-1.075-1.372-1.406-2.243-.497-1.837-.497-2.897c0-.966.161-1.87.483-2.713.321-.843.776-1.571 1.363-2.188.587-.614 1.282-1.103 2.088-1.462.805-.36 1.689-.54 2.655-.54 1.137 0 2.111.218 2.926.653s1.481 1.013 2.003 1.732c.521.72.903 1.544 1.15 2.472.245.928.369 1.894.369 2.896h-10.425c.019.588.146 1.127.384 1.619.236.493.554.919.951 1.278.397.36.853.645 1.363.853.512.208 1.052.313 1.619.313 1.117 0 2.035-.189 2.756-.568.719-.379 1.239-.748 1.562-1.107zm-2.301-5.823c-.076-1.023-.437-1.894-1.08-2.613s-1.553-1.08-2.727-1.08c-.606 0-1.15.104-1.633.313s-.895.483-1.235.824-.606.734-.796 1.179c-.189.445-.294.904-.313 1.378h7.784z"/><path d="m202.213 271.424c0-.549 0-1.026 0-1.435 0-.406-.01-.828-.028-1.264h2.443l.085 2.131c.151-.228.35-.479.597-.753.245-.274.544-.525.895-.753.35-.228.757-.421 1.222-.582.463-.161.998-.242 1.604-.242.284 0 .544.02.781.058.236.038.459.095.667.17l-.567 2.386c-.341-.132-.777-.198-1.307-.198-.55 0-1.057.104-1.52.313-.465.208-.867.497-1.208.866s-.61.8-.81 1.292c-.198.493-.298 1.014-.298 1.563v6.959h-2.557v-10.511z"/><path d="m224.057 282.332c-1.023 0-1.96-.185-2.813-.554s-1.586-.876-2.201-1.52-1.099-1.387-1.448-2.229c-.352-.843-.526-1.747-.526-2.713s.175-1.87.526-2.713c.35-.842.833-1.585 1.448-2.229s1.349-1.15 2.201-1.52 1.789-.554 2.813-.554c1.003 0 1.931.185 2.783.554s1.591.876 2.216 1.52c.625.645 1.112 1.388 1.463 2.229.35.843.525 1.747.525 2.713s-.176 1.87-.525 2.713c-.351.843-.838 1.586-1.463 2.229s-1.363 1.15-2.216 1.52-1.78.554-2.783.554zm0-2.215c.682 0 1.296-.138 1.846-.412.549-.274 1.013-.635 1.392-1.079.379-.445.668-.956.866-1.534.199-.577.299-1.169.299-1.775 0-.587-.1-1.169-.299-1.747-.198-.577-.492-1.094-.88-1.548-.389-.454-.853-.818-1.392-1.094-.54-.274-1.15-.411-1.832-.411-.683 0-1.298.137-1.847.411-.55.275-1.014.635-1.392 1.08-.379.444-.668.956-.866 1.533-.199.578-.299 1.17-.299 1.775 0 .606.1 1.193.299 1.761.198.568.492 1.08.88 1.534.389.454.853.819 1.393 1.094.539.274 1.149.412 1.832.412z"/><path d="m234.935 270.857h-2.386v-2.131h2.386v-1.079c0-.89.128-1.662.384-2.315s.597-1.188 1.022-1.604c.426-.416.913-.725 1.463-.923.549-.199 1.126-.299 1.732-.299.7 0 1.387.109 2.06.327.672.218 1.292.592 1.86 1.122l-1.278 1.647c-.7-.587-1.448-.881-2.244-.881-.738 0-1.33.237-1.774.71-.445.474-.668 1.288-.668 2.443v.852h3.777v2.131h-3.777v11.077h-2.557z"/></g></svg>